# xmcd
#
# Track frame offsets:
#	225
#	13429
#	25250
#	39967
#	54350
#	68568
#	79244
#	93434
#	105270
#	119159
#	130517
#	140974
#	152576
#	164487
#
# Disc length: 2345 seconds
#
# Revision: 0
# Processed by: cddbd v1.5.1PL0 Copyright (c) Steve Scherf et al.
# Submitted via: EasyCDDAExtractor 7.5.0.1
#
DISCID=b809260e
DTITLE=Various Artist - Stars der Volksmusik Vol.2
DYEAR=2000
DGENRE=Volkdmusik
TTITLE0=Orig. Tiroler Echo - Die Sterne am Himmel
TTITLE1=Die Pucher - Boarisch tanzen
TTITLE2=Alois Keuschnigg's 4 Tiroler Buam - Oh Katharina
TTITLE3=Hansi K. - Schöne Mädchen küss' ich gern
TTITLE4=Die 5 Weststeirer - Das Geschenk
TTITLE5=Die Griffner Buam - Aud der Überholspur
TTITLE6=Die Vaiolets - Mal mir ein Bild von St. Bartholomä
TTITLE7=Trio Zillertal - Mei Hoamat
TTITLE8=Lavantaler Spitzbuam - Ich liebe mein Mädchen
TTITLE9=Kasermandln - Rehbraune Augen
TTITLE10=Slowenische 7 - Eine Blonde, eine Schwarze
TTITLE11=Oberkärntner Sextett - Musik als Geschenk
TTITLE12=Franzl Lang - Holladrata, wer ko, der ko
TTITLE13=Ensemble Franz Mihelic - Tu nur, was dir gefällt
EXTD=
EXTT0=
EXTT1=
EXTT2=
EXTT3=
EXTT4=
EXTT5=
EXTT6=
EXTT7=
EXTT8=
EXTT9=
EXTT10=
EXTT11=
EXTT12=
EXTT13=
PLAYORDER=
